#!OML:ASF F:\VICON\USERDATA\INSTALL\rory3\rory3.ASF
:FULLY-SPECIFIED
:DEGREES
37
root -0.19578589402871827 18.05467279806189 8.590869201838938 -1.5225625858829832 -3.6538710260886185 -7.565324780000134
lfemur -29.678881233124223 3.8983328768915855 -12.72364351162222
ltibia 44.791559314826515
lfoot -6.512749805867775 0.8120562361533947
ltoes -7.117000102386836
rfemur 2.151992300732344 6.361686145518742 34.38270598000432
rtibia 26.590688919235898
rfoot -13.416659341597695 -6.279736741938061
rtoes 8.931671947244098
lowerback 10.334562095827472 1.4562750225055414 7.698513675266076
upperback 0.03032837365001867 2.917179594038557 1.9940734472139132
thorax -5.368335255840455 1.2869428406072274 -2.1268429515278653
lowerneck -16.338345263520704 -3.1773905305872425 -1.6055313722918707
upperneck 20.304122851683342 -4.2990528588030905 1.1117903467198338
head 9.150089106536315 -2.010206236400152 0.11230873107167534
lclavicle -4.480911063076671e-16 -7.735673224510408e-16
lhumerus -35.409325891442016 8.763227408757409 78.59023616052524
lradius 21.305458238721997
lwrist 2.57531655056759
lhand -27.700108062054873 21.486158130631207
lfingers 7.12502
lthumb -1.170646975457137 51.40991575612224
rclavicle -4.567500683419897e-16 -7.790983151299391e-16
rhumerus -21.95647714363144 -8.520262706520779 -82.51109427333355
rradius 29.433239580273828
rwrist -1.044200445851776
rhand -18.112834107849512 21.87793874631404
rfingers 7.12502
rthumb 8.247563911533648 -8.007033409189674
38
root -0.16056195824460695 18.03553593464664 9.174352058613213 -0.3704266380782113 -4.379384063397964 -7.876385723563519
lfemur -30.04962323653156 2.2681499151765867 -11.90244640400973
ltibia 34.25658083859141
lfoot -6.210044640653403 2.075453828237139
ltoes -7.82899582154535
rfemur 5.05459299885888 6.350946460466437 34.679599972851214
rtibia 23.965475117471584
rfoot -13.481454647621273 -6.716533496463204
rtoes 8.6263403653696
lowerback 9.64830301995732 1.8818509463822353 8.054551312878308
upperback -0.013360585980671205 3.4770678428527306 1.96963675299743
thorax -5.167931513303445 1.5408004102740063 -2.581902195986297
lowerneck -16.514471039956273 -3.165920582767165 -1.5286583649268703
upperneck 20.181774281429547 -4.279200055719026 1.174877681102879
head 9.146592164522763 -2.0055843437824743 0.11456840332113216
lclavicle -4.484759866455789e-16 -7.739581509512453e-16
lhumerus -36.36602588906566 8.990432294946359 78.26624511961083
lradius 21.124586718345633
lwrist 1.8366152018293218
lhand -27.915651371465227 20.445676110221743
lfingers 7.12502
lthumb -1.2508124557319678 51.004070740907586
rclavicle -4.559021736764383e-16 -7.78443451177612e-16
rhumerus -20.881393774821646 -7.515763727435692 -82.69369284544307
rradius 30.66736128867415
rwrist -2.062181214895462
rhand -18.314359405200744 22.74448304140527
rfingers 7.12502
rthumb 8.037011274511372 -7.191251018387349
39
root -0.11765932961210901 17.963060669343918 9.82472836169882 0.13790771805351065 -5.131375577518713 -7.991757706738559
lfemur -29.379067928672548 -1.0619549098628114 -10.725621519698773
ltibia 23.551427707671714
lfoot -4.797120184637814 3.4019571412935887
ltoes -8.247539195430932
rfemur 7.872232581719807 6.22363864728079 34.65742274704923
rtibia 21.7689663703433
rfoot -13.248113942191376 -6.6020710599101635
rtoes 8.287746313528896
lowerback 9.38117393468607 2.262168521577963 8.245838516107593
upperback -0.0688327810829973 3.9569268217725764 1.9275691587747015
thorax -4.9799730324246605 1.7607416615747784 -2.8874648344825564
lowerneck -16.675112961654108 -3.164947258548259 -1.4622458220126513
upperneck 20.04433647849039 -4.278008413515579 1.2425051281015733
head 9.124834058583211 -2.00667627154626 0.12672592279505748
lclavicle -4.528436564119621e-16 -7.767799426650999e-16
lhumerus -37.078888115785624 9.397990918751187 77.94407850397296
lradius 20.88967528903901
lwrist 1.4020853986464892
lhand -27.614729144288944 21.435815390753866
lfingers 7.12502
lthumb -1.2031142396890986 51.34554259497668
rclavicle -4.555916750566851e-16 -7.782033568862787e-16
rhumerus -20.140780392450743 -7.295737922236876 -82.67675069185375
rradius 31.453618875607862
rwrist -2.4381805632340052
rhand -18.529606341362904 23.51683721071108
rfingers 7.12502
rthumb 7.820303207515563 -6.312437429549702
40
root -0.06205107179385405 17.872129006584398 10.624449388552119 0.33899450178334734 -5.498127261175343 -7.885216298499365
lfemur -27.957107897474884 -5.15472515423361 -9.406870231884957
ltibia 14.926847748932694
lfoot -4.404213758428854 4.2363288621936395
ltoes -9.57991932748443
rfemur 10.298292941885748 6.2463756231063785 34.25265901296805
rtibia 21.152681801366622
rfoot -12.877426081625007 -5.904331267634264
rtoes 7.35924253266272
lowerback 9.169445924503815 2.4880226807056567 8.268403689488679
upperback -0.05382182178762561 4.226464262810082 1.8359418156162624
thorax -4.783554931670327 1.885712986223694 -3.034402387138033
lowerneck -16.82510821678649 -3.169625342482142 -1.4203727138541864
upperneck 20.002080153015207 -4.287299954769448 1.3644330407304057
head 9.139305856725164 -2.0129864949321234 0.15107146451840806
lclavicle -4.533541091791072e-16 -7.771192198277928e-16
lhumerus -37.52587904720709 9.998987768467943 77.62502980546569
lradius 20.58173192717217
lwrist 1.6546420683032572
lhand -28.095483856302906 20.393266872871443
lfingers 7.12502
lthumb -1.5302901681127534 50.82763994887047
rclavicle -4.548778154061076e-16 -7.776514316937622e-16
rhumerus -19.760045261493808 -7.76094441637256 -82.51226157469499
rradius 31.778061046795838
rwrist -2.39574647336518
rhand -18.687667505770985 23.98406129330857
rfingers 7.12502
rthumb 7.634847096258644 -5.786103597167901
